<?xml version="1.0" standalone="no"?>
<!DOCTYPE svg PUBLIC "-//W3C//DTD SVG 20010904//EN"
 "http://www.w3.org/TR/2001/REC-SVG-20010904/DTD/svg10.dtd">
<svg version="1.0" xmlns="http://www.w3.org/2000/svg"
 width="512.000000pt" height="512.000000pt" viewBox="0 0 512.000000 512.000000"
 preserveAspectRatio="xMidYMid meet">

  <style>
    path {
      fill: #000;
    }
    @media (prefers-color-scheme: dark) {
      path {
        fill: #ddd;
      }
    }
  </style>


<g transform="translate(0.000000,512.000000) scale(0.100000,-0.100000)">
<path d="M2445 4340 c-1039 -285 -1920 -528 -1956 -539 -82 -26 -139 -74 -175
-146 l-26 -55 -1 -1548 c0 -1522 0 -1548 20 -1592 27 -61 66 -105 122 -138
l46 -27 2065 -3 c2330 -3 2123 -10 2210 77 86 86 80 -30 79 1485 0 1000 -4
1349 -12 1373 -25 66 -73 119 -137 152 l-63 31 -350 0 c-193 0 -348 2 -345 5
3 3 171 51 374 106 203 55 388 109 411 120 51 24 98 77 127 138 38 85 30 136
-83 545 -56 204 -111 385 -122 403 -50 81 -150 134 -248 132 -27 0 -817 -212
-1936 -519z m1763 -183 c124 -163 223 -300 219 -303 -7 -8 -507 -144 -528
-144 -14 0 -475 597 -467 605 8 9 516 144 532 142 12 -1 100 -108 244 -300z
m-963 -258 c125 -165 224 -303 221 -306 -10 -10 -531 -150 -539 -146 -11 7
-459 604 -455 607 6 6 513 144 530 145 11 1 96 -104 243 -300z m-961 -260
c125 -166 224 -305 219 -309 -4 -4 -53 -19 -108 -34 -95 -25 -110 -27 -300
-24 l-199 3 -193 255 c-106 140 -193 257 -193 260 0 5 513 148 536 149 6 1
113 -135 238 -300z m-1136 -385 c190 -79 167 -351 -34 -403 -106 -28 -227 47
-253 157 -25 104 30 211 129 251 38 15 116 13 158 -5z m1129 -479 l-142 -355
-284 0 c-265 0 -283 1 -278 18 5 20 267 673 274 685 2 4 132 7 288 7 l283 0
-141 -355z m1129 338 c-3 -10 -66 -169 -140 -353 l-134 -335 -286 -3 -286 -2
13 32 c7 18 71 178 142 356 l129 322 284 0 c265 0 283 -1 278 -17z m991 -15
c-7 -18 -71 -178 -142 -355 l-129 -323 -283 0 c-156 0 -283 2 -283 5 0 3 59
152 131 332 72 181 135 338 140 351 l9 22 285 0 285 0 -13 -32z m153 -1673 l0
-855 -1990 0 -1990 0 0 855 0 855 1990 0 1990 0 0 -855z"/>
</g>
</svg>
